#!OML:ASF F:\VICON\USERDATA\INSTALL\rory3\rory3.ASF
:FULLY-SPECIFIED
:DEGREES
4160
root 1.6194 17.5869 -6.76807 -34.4195 -81.0921 41.5859
lowerback 8.6207 1.76506 4.97266
upperback 3.21215 2.605 7.37162
thorax -1.60665 1.16078 4.63338
lowerneck -16.1318 11.5928 -0.652457
upperneck 27.4818 14.4993 6.38888
head 10.955 7.26957 4.37204
rclavicle 3.26007e-014 -3.18055e-014
rhumerus -39.0191 -13.368 -57.2101
rradius 45.4086
rwrist 5.01115
rhand -19.7635 -4.69404
rfingers 7.12502
rthumb 6.56813 -34.5722
lclavicle 3.26007e-014 -3.18055e-014
lhumerus -9.09532 44.8117 54.6986
lradius 61.0815
lwrist 56.4809
lhand -22.1913 26.0792
lfingers 7.12502
lthumb 4.22406 -1023.98
rfemur -19.5522 15.3069 6.80662
rtibia 38.2376
rfoot -9.22845 24.8682
rtoes 26.8386
lfemur -22.6023 -5.25855 -13.6388
ltibia 19.8454
lfoot -5.51094 1.40028
ltoes -22.9967
4161
root 1.60558 17.5885 -6.7151 -33.1731 -81.1051 40.3676
lowerback 8.50371 1.8251 4.97706
upperback 3.23374 2.67226 7.37526
thorax -1.52229 1.19534 4.63115
lowerneck -15.9335 11.5939 -0.549312
upperneck 27.2641 14.4902 6.32365
head 10.8514 7.27442 4.30321
rclavicle -2.94201e-014 -4.13472e-014
rhumerus -39.0662 -13.5896 -57.1655
rradius 45.5271
rwrist 5.20332
rhand -19.7602 -4.56059
rfingers 7.12502
rthumb 6.57136 -34.4386
lclavicle -2.94201e-014 -4.13472e-014
lhumerus -5.5661 46.2831 55.7034
lradius 61.3291
lwrist 54.5028
lhand -22.6119 25.5898
lfingers 7.12502
lthumb 3.81792 -1024.46
rfemur -19.4006 15.131 6.79187
rtibia 38.0888
rfoot -9.1564 24.9453
rtoes 26.8638
lfemur -22.6238 -5.63318 -13.571
ltibia 19.2943
lfoot -4.49809 0.7168
ltoes -22.2837
4162
root 1.59253 17.588 -6.66527 -31.2825 -81.1212 38.4757
lowerback 8.44272 1.87945 4.96795
upperback 3.23871 2.73681 7.4361
thorax -1.48956 1.22683 4.69631
lowerneck -15.7791 11.5837 -0.538822
upperneck 27.0823 14.4659 6.34698
head 10.7539 7.27374 4.28155
rclavicle 2.06736e-014 3.81667e-014
rhumerus -39.0554 -13.5139 -57.1761
rradius 45.5385
rwrist 5.35355
rhand -19.8981 -4.42944
rfingers 7.12502
rthumb 6.43822 -34.3116
lclavicle 2.06736e-014 3.81667e-014
lhumerus -1.81035 47.3447 57.0807
lradius 61.6239
lwrist 52.7013
lhand -22.6556 25.008
lfingers 7.12502
lthumb 3.77565 -1025.05
rfemur -19.2209 15.0045 6.90587
rtibia 37.9488
rfoot -9.14939 24.939
rtoes 26.814
lfemur -22.688 -5.99179 -13.4373
ltibia 19.0525
lfoot -3.43896 0.0585119
ltoes -20.9408
4163
root 1.5852 17.5855 -6.618 -29.5821 -81.0421 36.8717
lowerback 8.38702 1.96478 4.86868
upperback 3.17745 2.84609 7.49025
thorax -1.53581 1.28137 4.79952
lowerneck -15.6541 11.5368 -0.614606
upperneck 26.9497 14.4122 6.38164
head 10.6731 7.25118 4.27811
rclavicle -4.85035e-014 -5.08889e-014
rhumerus -39.1448 -13.5556 -57.0651
rradius 45.6235
rwrist 5.55214
rhand -20.1311 -4.29534
rfingers 7.12502
rthumb 6.21325 -34.1842
lclavicle -4.85035e-014 -5.08889e-014
lhumerus 2.27491 48.0753 58.9329
lradius 61.8423
lwrist 50.9416
lhand -22.3899 24.4065
lfingers 7.12502
lthumb 4.03227 -1025.65
rfemur -19.1862 14.8302 6.91811
rtibia 37.8325
rfoot -9.23494 24.827
rtoes 26.3606
lfemur -22.9019 -6.19741 -13.441
ltibia 19.107
lfoot -2.62765 -0.301081
ltoes -19.2152
4164
root 1.58278 17.5823 -6.56796 -28.5109 -80.8428 35.9015
lowerback 8.33606 2.04178 4.69492
upperback 3.132 2.94101 7.44846
thorax -1.56723 1.3314 4.84391
lowerneck -15.5549 11.4639 -0.494694
upperneck 26.8634 14.3535 6.12176
head 10.6596 7.20421 4.15359
rclavicle -3.97569e-015 6.36111e-015
rhumerus -39.1875 -13.9293 -56.9249
rradius 45.711
rwrist 5.70804
rhand -20.1095 -4.28183
rfingers 7.12502
rthumb 6.23414 -34.1701
lclavicle -3.97569e-015 6.36111e-015
lhumerus 6.82748 48.3805 61.0219
lradius 61.8967
lwrist 49.3354
lhand -22.1195 23.9128
lfingers 7.12502
lthumb 4.29334 -1026.15
rfemur -19.1575 14.4706 6.78069
rtibia 37.7136
rfoot -9.20021 24.8075
rtoes 25.7123
lfemur -23.1561 -6.19843 -13.6565
ltibia 19.4726
lfoot -2.42338 -0.236266
ltoes -18.1962
